PathFileType	4	(X/Y/Z)	C:/Users/opensim2020/Desktop/walking_exp_matlab/subject06_walking13_straight_02.trc	
DataRate	CameraRate	NumFrames	NumMarkers	Units	OrigDataRate	OrigDataStartFrame	OrigNumFrames	
100.00	100.00	7	50	mm	100.00	1636	199	
Frame#	Time	LFHD			RFHD			LBHD			RBHD			C7			T10			CLAV			STRN			RBAK			LSHO			LUPA			LELB			LFRM			LWRA			LWRB			LFIN			RSHO			RUPA			RELB			RFRM			RWRA			RWRB			RFIN			LASI			RASI			LPSI			RPSI			LTHI			LKNE			LTIB			LANK			LHEE			LTOE			RTHI			RKNE			RTIB			RANK			RHEE			RTOE			*39			*40			*41			*42			*43			*44			*45			*46			*47			*48			*49			
		X1	Y1	Z1	X2	Y2	Z2	X3	Y3	Z3	X4	Y4	Z4	X5	Y5	Z5	X6	Y6	Z6	X7	Y7	Z7	X8	Y8	Z8	X9	Y9	Z9	X10	Y10	Z10	X11	Y11	Z11	X12	Y12	Z12	X13	Y13	Z13	X14	Y14	Z14	X15	Y15	Z15	X16	Y16	Z16	X17	Y17	Z17	X18	Y18	Z18	X19	Y19	Z19	X20	Y20	Z20	X21	Y21	Z21	X22	Y22	Z22	X23	Y23	Z23	X24	Y24	Z24	X25	Y25	Z25	X26	Y26	Z26	X27	Y27	Z27	X28	Y28	Z28	X29	Y29	Z29	X30	Y30	Z30	X31	Y31	Z31	X32	Y32	Z32	X33	Y33	Z33	X34	Y34	Z34	X35	Y35	Z35	X36	Y36	Z36	X37	Y37	Z37	X38	Y38	Z38	X39	Y39	Z39	X40	Y40	Z40	X41	Y41	Z41	X42	Y42	Z42	X43	Y43	Z43	X44	Y44	Z44	X45	Y45	Z45	X46	Y46	Z46	X47	Y47	Z47	X48	Y48	Z48	X49	Y49	Z49	X50	Y50	Z50	

100	0.990	1500.84521	-18.32589	1664.53906	1369.42871	-13.30188	1649.69592	1506.74915	117.35123	1614.88049	1377.60852	120.80442	1605.99719	1454.18274	123.61866	1452.22766	1452.97791	151.86044	1121.62329	1450.38293	13.10029	1375.84961	1460.49817	-30.02723	1199.96399	1383.77539	195.76863	1278.05042	1614.16956	62.67499	1408.57312	1685.98254	47.20660	1206.09106	1697.48010	36.77729	1093.51538	1716.41772	-32.27003	959.57092	1674.32458	-133.13170	880.66028	1703.95850	-76.54325	848.46802	1706.20728	-147.10046	792.41003	1289.35901	62.10270	1401.06433	1212.16895	115.34908	1200.05249	1205.11938	115.05935	1077.41602	1192.47949	108.20316	956.68213	1225.65540	55.55115	815.10553	1189.93604	112.93916	818.46533	1189.02979	81.47205	739.87836	1555.82825	-24.46787	956.31714	1335.32849	-29.96768	975.98883	1524.79541	132.93933	983.47534	1357.02832	122.67765	997.69562	1604.16675	23.06600	636.83850	1586.30505	6.49388	474.64432	1586.41028	200.28033	323.53946	1554.73669	335.92557	216.66429	1508.72266	371.38367	238.97676	1548.33032	285.51810	79.92848	1282.10583	-13.96954	643.79895	1313.75452	-35.53122	521.70050	1323.97937	-1.38337	254.83427	1377.36316	9.94133	71.80754	1424.45557	48.16808	47.88766	1378.23303	-141.97832	39.58760	1443.35034	82.53785	1704.80298																														 
101	1.000	1500.59534	-29.20208	1665.15674	1369.17749	-24.14006	1650.62305	1506.47058	106.50260	1615.75195	1377.38977	110.00355	1607.14514	1453.46497	113.18538	1453.28430	1451.82263	142.14037	1122.89233	1449.91455	2.77486	1376.75647	1459.88110	-39.94894	1200.86108	1382.23901	185.30315	1279.56409	1613.58020	52.94217	1409.37561	1684.99658	38.88609	1206.59741	1695.87537	30.27194	1093.73413	1714.55249	-34.67377	957.61450	1673.18750	-132.68352	875.00519	1702.38306	-74.99857	844.98779	1705.39160	-143.30159	786.36340	1288.75989	50.79602	1402.10205	1210.98767	101.79932	1200.51208	1204.31055	100.37839	1077.89697	1191.95532	91.06173	957.37762	1225.85864	35.31031	817.40613	1190.15515	92.61272	819.08350	1189.62683	59.13964	741.36774	1554.77625	-34.36880	957.56531	1334.27075	-39.12088	976.74951	1524.17627	123.27472	984.31818	1356.32629	113.31161	998.23865	1603.57129	8.07198	638.44073	1585.54297	-12.08843	476.84570	1586.12512	179.72618	323.86426	1554.69116	314.43253	215.89055	1508.38196	350.43863	236.87787	1550.61560	260.42719	81.02567	1281.72546	-20.97986	643.62231	1313.54858	-41.34357	521.24445	1323.93567	-3.86509	254.82098	1377.48376	9.68179	71.90360	1424.57434	48.13049	48.02792	1378.29712	-142.09576	39.22704	1443.30359	71.53025	1705.76416																														 
102	1.010	1500.50183	-40.19554	1665.71655	1369.05493	-35.07924	1651.46960	1506.23669	95.65518	1616.69470	1377.16052	99.09087	1608.33472	1452.56714	102.95461	1454.23169	1450.71838	132.48416	1123.99341	1449.47888	-7.48130	1377.55896	1459.28992	-49.97243	1201.63867	1380.74768	174.86740	1280.83093	1612.94568	43.20820	1410.17847	1684.03845	30.59751	1207.20581	1694.27148	23.86261	1094.06738	1713.27747	-37.04010	956.08228	1671.90833	-131.75975	869.51166	1701.44238	-73.02927	841.83301	1704.64038	-139.09148	780.76080	1288.21094	39.68115	1403.15247	1209.99634	88.15577	1201.05432	1203.61487	85.86569	1078.60303	1191.50732	74.16979	958.26227	1225.95850	14.75755	820.05493	1190.54797	71.72520	820.10278	1190.14661	36.72093	743.41846	1553.59595	-44.27380	958.83069	1333.04846	-48.48504	977.39777	1523.47559	113.60677	985.17627	1355.68799	104.02225	998.74847	1603.18274	-6.57413	639.99969	1584.75513	-30.34251	479.09357	1585.53760	159.30461	323.54367	1554.63379	292.25323	213.87160	1507.98499	329.02313	233.48102	1552.39478	233.83665	81.40829	1281.33386	-27.82644	643.29651	1313.42566	-47.11638	520.63751	1324.15393	-5.96133	254.75790	1377.77112	9.48187	72.01739	1424.76038	48.10698	48.20554	1378.36108	-142.11618	39.15950	1443.28735	60.47424	1706.71387																														 
103	1.020	1500.47095	-51.21083	1666.13696	1368.86975	-46.00556	1652.23718	1505.93018	84.89037	1617.52161	1376.77625	88.32470	1609.56592	1451.74731	92.68610	1455.04492	1449.68530	122.70083	1124.93945	1449.06470	-17.70452	1378.28479	1458.77100	-59.89273	1202.35486	1379.31384	164.49715	1281.89563	1612.37964	33.59361	1411.05774	1683.17676	22.55834	1207.91016	1692.77209	17.54031	1094.46216	1711.60315	-39.00307	954.49792	1670.71655	-130.63765	864.38330	1700.31226	-70.69238	839.05273	1703.91809	-134.42612	775.52600	1287.72009	28.76521	1404.21289	1209.06445	74.78578	1201.72656	1203.25085	71.12906	1079.48499	1191.23901	57.25940	959.39490	1226.18640	-5.94189	823.11743	1190.89905	51.24817	821.38947	1190.51697	13.94614	745.92352	1552.32043	-54.27218	960.08142	1331.76636	-57.18795	977.70410	1522.71594	103.90174	986.02661	1354.90674	94.71458	999.22632	1602.71765	-21.14181	641.43091	1584.05908	-48.21553	481.44446	1585.15515	138.56131	323.06754	1554.66150	269.43103	210.79669	1507.81482	307.03278	228.80072	1554.01550	206.25888	80.85973	1281.02563	-34.77568	643.13013	1313.22644	-52.55706	520.02087	1324.33789	-7.74063	254.68121	1378.11377	9.23560	72.21417	1425.09277	47.97832	48.42747	1378.33472	-142.29834	39.00451	1443.25598	49.38036	1707.60583																														 
104	1.030	1500.35413	-62.16015	1666.40686	1368.73987	-56.99042	1652.91296	1505.61584	74.11600	1618.35339	1376.44214	77.42345	1610.73474	1451.11804	82.31296	1455.72144	1448.59485	112.99851	1125.75427	1448.69775	-27.88877	1378.95752	1458.25427	-69.85003	1203.02905	1377.87561	154.18906	1282.62061	1611.83936	23.97350	1411.87268	1682.32898	14.77347	1208.59827	1691.37634	11.21347	1094.94165	1710.21838	-40.88003	953.18835	1669.47192	-129.11209	859.47186	1699.15234	-68.26334	836.59839	1703.17212	-129.43758	770.70471	1287.27100	18.06198	1405.23389	1208.38123	61.46569	1202.62683	1202.74048	57.29970	1080.33691	1191.01355	40.42402	960.70233	1226.54077	-26.71567	826.62933	1191.46191	30.28535	823.13605	1190.94336	-9.05363	748.82941	1550.98755	-64.29905	961.18353	1330.38770	-66.25067	977.89063	1521.98145	94.08038	986.87384	1354.38013	85.07014	999.64020	1601.94214	-35.67628	643.45886	1583.35205	-65.74901	483.88211	1584.66821	117.59752	321.96082	1554.50354	245.91705	206.57401	1507.65698	284.35577	222.84189	1554.84094	177.02298	79.84466	1280.98523	-40.59796	642.43134	1312.93970	-57.72235	519.37628	1324.59473	-9.45885	254.64175	1378.35815	9.15997	72.34659	1425.29822	47.99937	48.58808	1378.18701	-142.58286	38.82783	1443.23401	38.24969	1708.45618																														 
105	1.040	1500.29480	-73.25692	1666.66333	1368.57837	-68.00758	1653.51880	1505.27039	63.39612	1619.14490	1376.08789	66.61578	1611.83264	1450.35876	72.06297	1456.42871	1447.49731	103.24836	1126.42139	1448.41040	-38.03196	1379.55908	1457.74780	-79.79827	1203.55334	1376.57959	143.92244	1283.40735	1611.29883	14.56035	1412.54041	1681.50879	7.20053	1209.03821	1690.04907	4.92375	1095.38672	1709.16125	-42.86398	952.22992	1668.21790	-127.46591	854.90283	1698.03857	-65.74117	834.41022	1702.33069	-124.30505	766.28802	1286.88660	7.40020	1406.17212	1207.54370	48.94367	1203.48962	1202.22424	43.91263	1081.24707	1190.82288	23.91741	962.09357	1227.04919	-47.66579	830.57800	1192.02246	9.64162	825.02966	1191.37183	-32.16197	752.43005	1549.57532	-74.42075	962.20959	1329.03540	-75.43679	977.95728	1521.31519	84.20444	987.70514	1353.46753	75.68304	999.83948	1601.61987	-49.68067	645.28284	1582.50537	-82.93581	486.39075	1584.13367	96.49604	320.43237	1554.52234	221.81107	201.50441	1507.36792	260.85028	215.97336	1556.05884	147.38571	78.11701	1280.85742	-46.73083	641.94214	1312.50879	-62.68540	518.67328	1324.78357	-11.22903	254.56725	1378.92786	8.77129	72.48745	1425.59229	47.89694	48.78448	1378.14429	-142.77338	38.55157	1443.10828	27.05373	1709.23987																														 
106	1.050	1500.06116	-84.04448	1666.84460	1368.40271	-79.05807	1653.93823	1504.82129	52.68934	1619.85266	1375.64734	55.69763	1612.80457	1449.75513	61.88306	1457.12952	1446.32837	93.42649	1127.03088	1448.03369	-48.03512	1380.09119	1457.22510	-89.61116	1204.00732	1375.41333	133.63432	1283.97913	1610.87866	4.98771	1413.13892	1680.80396	-0.26291	1209.44373	1688.87952	-1.43716	1095.78040	1708.03882	-44.77903	951.36188	1666.98291	-125.75671	850.69684	1697.13159	-63.32466	832.89563	1701.37805	-119.09863	762.35327	1286.48535	-3.16618	1407.01208	1206.77563	37.11317	1204.34192	1201.63770	30.99568	1082.10498	1190.69299	7.63137	963.67328	1227.51135	-68.29733	834.86975	1192.70544	-11.21414	827.27875	1191.87146	-55.63015	756.32593	1548.23486	-84.51402	963.09033	1327.70947	-84.70875	977.90302	1520.59839	74.30914	988.51953	1352.65393	66.12772	1000.23840	1601.31824	-63.63543	647.21149	1581.73999	-99.90083	489.04794	1583.56995	75.15587	318.40503	1554.16089	196.54822	195.26988	1507.10596	236.44025	208.17540	1557.03394	118.26147	75.41395	1280.73425	-52.84383	641.48206	1312.05554	-67.71291	518.02148	1324.74670	-13.36301	254.48523	1379.16980	8.50854	72.62338	1425.79736	47.77316	49.03480	1378.08508	-142.98383	38.29825	1442.90674	15.87113	1709.93103																														 
